<svg width="150" height="150" fill="none" xmlns="http://www.w3.org/2000/svg"><path d="M47 30C47 14.536 59.536 2 75 2v0c15.464 0 28 12.536 28 28v14H47V30Zm3 14h49v14.5C99 72.031 88.031 83 74.5 83v0C60.969 83 50 72.031 50 58.5V44Zm-8 0h66" stroke="#282828" stroke-width="4" stroke-linecap="round" stroke-linejoin="round"/><path d="M63 4v9a9 9 0 0 0 9 9h6a9 9 0 0 0 9-9V4M75 2v20M38 94v21a2 2 0 0 1-2 2 5 5 0 0 0-5 5v24a2 2 0 0 0 2 2h84a2 2 0 0 0 2-2v-24a5 5 0 0 0-5-5 2 2 0 0 1-2-2V93.5M48 90v25a2 2 0 0 0 2 2h50a2 2 0 0 0 2-2V90" stroke="#282828" stroke-width="4"/><path d="M101 125h10m-72 0h10" stroke="#282828" stroke-width="4" stroke-linecap="round"/><path d="M60 79v8l15 21 15-21v-9.5" stroke="#282828" stroke-width="4" stroke-linejoin="round"/><path d="M60 87c-10.667 1.833-32.9 8.4-36.5 20-3.6 11.6-6.167 32.167-7 41M90 87c10.667 1.833 32.9 8.4 36.5 20 3.6 11.6 6.167 32.167 7 41" stroke="#282828" stroke-width="4" stroke-linecap="round"/><path d="m22 10 3.241 8.759L34 22l-8.759 3.241L22 34l-3.241-8.759L10 22l8.759-3.241L22 10Zm106 51 3.241 8.759L140 73l-8.759 3.241L128 85l-3.241-8.759L116 73l8.759-3.241L128 61Z" stroke="#282828" stroke-width="3" stroke-linejoin="round"/></svg>