<svg width="150" height="150" fill="none" xmlns="http://www.w3.org/2000/svg"><path d="M98 91.169c21.812 0 39.5-17.613 39.5-39.338C137.5 30.112 119.812 12.5 98 12.5c-21.813 0-39.487 17.613-39.487 39.331 0 10.063 4.593 17.382 4.593 17.382l-47.762 47.562c-2.144 2.138-5.144 7.687 0 12.812l5.512 5.488c2.144 1.831 7.531 4.394 11.938 0l6.437-6.4c6.425 6.4 13.775 2.744 16.532-.919 4.587-6.4-.92-12.806-.92-12.806l1.838-1.831c8.813 8.781 16.532 3.662 19.288 0 4.594-6.4 0-12.807 0-12.807-1.838-3.656-5.513-3.656-.919-8.23l5.513-5.488c4.406 3.656 13.468 4.575 17.45 4.575H98Z" stroke="#282828" stroke-width="4" stroke-linejoin="round"/><path d="M111.781 51.837a13.75 13.75 0 0 1-13.775 13.72 13.75 13.75 0 0 1-13.775-13.72 13.751 13.751 0 0 1 13.775-13.725 13.747 13.747 0 0 1 13.775 13.725Z" stroke="#282828" stroke-width="4"/><path d="m27.5 10 4.727 12.773L45 27.5l-12.773 4.727L27.5 45l-4.727-12.773L10 27.5l12.773-4.727L27.5 10ZM126 112l3.781 10.219L140 126l-10.219 3.781L126 140l-3.781-10.219L112 126l10.219-3.781L126 112Z" stroke="#282828" stroke-width="3.25" stroke-linejoin="round"/></svg>