<svg width="150" height="150" fill="none" xmlns="http://www.w3.org/2000/svg"><path d="M123.268 35.633a158.811 158.811 0 0 1-24.116-8.616 163.568 163.568 0 0 1-22.148-11.77L75 14l-1.967 1.283a163.563 163.563 0 0 1-22.149 11.77 158.827 158.827 0 0 1-24.152 8.58L24 36.33v30.58c0 49.097 49.288 67.467 49.761 67.65L75 135l1.239-.44c.51 0 49.761-18.517 49.761-67.65V36.33l-2.732-.697Z" stroke="#282828" stroke-width="3.25" stroke-linejoin="round"/><path d="M112.857 43.985a124.508 124.508 0 0 1-18.914-6.765 128.241 128.241 0 0 1-17.372-9.241L75 27l-1.543 1.008a128.251 128.251 0 0 1-17.371 9.24 124.486 124.486 0 0 1-18.943 6.737L35 44.532V68.54c0 38.547 38.657 52.97 39.029 53.114L75 122l.971-.345c.4 0 39.029-14.538 39.029-53.114V44.53l-2.143-.546Z" stroke="#282828" stroke-width="3.25" stroke-linejoin="round"/><path d="m94.073 58.694-3.503-2.338a2.157 2.157 0 0 0-1.585-.32 2.13 2.13 0 0 0-1.355.87L70.484 81.765l-7.881-7.748a2.146 2.146 0 0 0-1.496-.604c-.56 0-1.097.217-1.495.604l-2.992 2.947a2.077 2.077 0 0 0-.62 1.47 2.048 2.048 0 0 0 .62 1.472L68.737 91.82c.68.666 1.746 1.18 2.706 1.18s1.928-.595 2.55-1.485l20.645-29.934c.314-.456.43-1.017.325-1.558a2.079 2.079 0 0 0-.89-1.329Z" stroke="#282828" stroke-width="3.25"/><path d="m132 6 3.241 8.759L144 18l-8.759 3.241L132 30l-3.241-8.759L120 18l8.759-3.241L132 6ZM24.5 111l3.916 10.584L39 125.5l-10.584 3.916L24.5 140l-3.916-10.584L10 125.5l10.584-3.916L24.5 111Z" stroke="#282828" stroke-width="3.25" stroke-linejoin="round"/></svg>