<svg width="150" height="150" fill="none" xmlns="http://www.w3.org/2000/svg"><path d="M73 13H58a5 5 0 0 0-5 5v79.5M118 13h15a5 5 0 0 1 5 5v101a5 5 0 0 1-5 5H81.5" stroke="#282828" stroke-width="3.25"/><rect x="73" y="6" width="45" height="14" rx="3" stroke="#282828" stroke-width="3.25"/><path d="M84.441 45.478c.344.319.545.758.558 1.222a1.73 1.73 0 0 1-.486 1.252l-10.118 10.5a1.786 1.786 0 0 1-1.272.548 1.816 1.816 0 0 1-1.287-.512l-5.357-5.25A1.73 1.73 0 0 1 66 52.012c.008-.453.196-.886.523-1.207.327-.32.768-.504 1.231-.512.462-.008.91.16 1.249.47l4.059 3.976 8.856-9.192A1.802 1.802 0 0 1 83.165 45c.473-.013.932.158 1.276.477Z" fill="#282828"/><path d="M125 53H93" stroke="#282828" stroke-width="3.25" stroke-linecap="round"/><path d="M84.441 69.478c.344.319.545.758.558 1.222a1.73 1.73 0 0 1-.486 1.251L74.395 82.453a1.786 1.786 0 0 1-1.272.547 1.816 1.816 0 0 1-1.287-.512l-5.357-5.25A1.73 1.73 0 0 1 66 76.012c.008-.453.196-.886.523-1.207.327-.32.768-.504 1.231-.512.462-.008.91.16 1.249.47l4.059 3.976 8.856-9.192A1.802 1.802 0 0 1 83.165 69c.473-.013.932.158 1.276.477Z" fill="#282828"/><path d="M125 77H93" stroke="#282828" stroke-width="3.25" stroke-linecap="round"/><path d="M84.441 93.478c.344.319.545.758.558 1.222a1.73 1.73 0 0 1-.486 1.251l-10.118 10.502a1.812 1.812 0 0 1-2.56.035l-5.356-5.251a1.732 1.732 0 0 1-.479-1.224c.008-.453.196-.886.523-1.207.327-.32.768-.504 1.231-.512.462-.008.91.16 1.249.47l4.059 3.976 8.856-9.192A1.802 1.802 0 0 1 83.165 93c.473-.013.932.158 1.276.477Z" fill="#282828"/><path d="M125 101H93" stroke="#282828" stroke-width="3.25" stroke-linecap="round"/><ellipse cx="35" cy="108" rx="10" ry="7" stroke="#282828" stroke-width="3.25"/><ellipse cx="35" cy="108" rx="23" ry="16" stroke="#282828" stroke-width="3.25"/><path d="M58 108v16m-25 13v5m25-5v5m-17-5v5m25-5v5m-16-8v8m25-8v8m-63-34v21c1.5 4.667 8.2 14 23 14h47.5v-19H35" stroke="#282828" stroke-width="3.25" stroke-linecap="round"/></svg>